<?xml version="1.0" encoding="UTF-8"?>
<!DOCTYPE svg PUBLIC "-//W3C//DTD SVG 1.1//EN" "http://www.w3.org/Graphics/SVG/1.1/DTD/svg11.dtd">
<!-- Creator: CorelDRAW 2020 (64 Bit) -->
<svg xmlns="http://www.w3.org/2000/svg" xml:space="preserve" width="101.6mm" height="101.6mm" version="1.1" style="shape-rendering:geometricPrecision; text-rendering:geometricPrecision; image-rendering:optimizeQuality; fill-rule:evenodd; clip-rule:evenodd"
viewBox="0 0 10160 10160"
 xmlns:xlink="http://www.w3.org/1999/xlink"
 xmlns:xodm="http://www.corel.com/coreldraw/odm/2003"
 enable-background="new 0 0 1200 1200">
 <defs>
  <style type="text/css">
   <![CDATA[
    .str1 {stroke:#DBE8D4;stroke-width:26.46;stroke-miterlimit:22.9256;stroke-opacity:0.011765}
    .str0 {stroke:#DBE8D4;stroke-width:26.46;stroke-miterlimit:22.9256;stroke-opacity:0.101961}
    .fil2 {fill:none;fill-rule:nonzero}
    .fil1 {fill:none;fill-rule:nonzero}
    .fil0 {fill:#C0E6FA;fill-rule:nonzero}
    .fil3 {fill:#DBE8D4;fill-rule:nonzero;fill-opacity:0.101961}
    .fil4 {fill:#DBE8D4;fill-rule:nonzero;fill-opacity:0.301961}
    .fil6 {fill:#DBE8D4;fill-rule:nonzero;fill-opacity:0.494118}
    .fil5 {fill:#DBE8D4;fill-rule:nonzero;fill-opacity:0.701961}
   ]]>
  </style>
 </defs>
 <g id="Camada_x0020_1">
  <metadata id="CorelCorpID_0Corel-Layer"/>
  <g id="planetoid">
   <ellipse class="fil0" cx="5071.53" cy="5080" rx="3483.43" ry="3416.08"/>
  </g>
  <g id="lines">
   <line class="fil1 str0" x1="4554.83" y1="1569.98" x2="4355.98" y2= "1064.67" />
   <line class="fil2 str1" x1="4355.98" y1="1064.67" x2="4245.67" y2= "1098.83" />
   <line class="fil1 str0" x1="4245.67" y1="1098.83" x2="3638.97" y2= "1528.7" />
   <line class="fil1 str0" x1="4355.98" y1="1064.67" x2="4678.19" y2= "560.8" />
   <line class="fil1 str0" x1="8388.74" y1="1166.42" x2="7967.14" y2= "1665.28" />
   <line class="fil1 str0" x1="7967.14" y1="1665.28" x2="7341.57" y2= "1575.61" />
   <line class="fil2 str1" x1="7341.57" y1="1575.61" x2="7102.09" y2= "848.33" />
   <line class="fil2 str1" x1="7102.09" y1="848.33" x2="6878.56" y2= "563.66" />
   <line class="fil1 str0" x1="6878.56" y1="563.66" x2="6850.98" y2= "311.72" />
   <line class="fil1 str0" x1="7341.57" y1="1575.61" x2="6382.17" y2= "1355.04" />
   <line class="fil2 str1" x1="6382.17" y1="1355.04" x2="6321.21" y2= "1181.39" />
   <line class="fil1 str0" x1="6321.21" y1="1181.39" x2="7102.09" y2= "848.33" />
   <line class="fil1 str0" x1="9881.57" y1="3417.44" x2="9229.88" y2= "3313.54" />
   <line class="fil1 str0" x1="9229.88" y1="3313.54" x2="8761.07" y2= "2942.04" />
   <line class="fil1 str0" x1="9229.88" y1="3313.54" x2="8862.66" y2= "2737.13" />
   <line class="fil2 str1" x1="9171.82" y1="3897.12" x2="9229.88" y2= "3313.54" />
   <line class="fil1 str0" x1="9171.82" y1="3897.12" x2="8823.47" y2= "3743.4" />
   <line class="fil2 str1" x1="8823.47" y1="3743.4" x2="9064.42" y2= "3979.68" />
   <line class="fil1 str0" x1="9064.42" y1="3979.68" x2="9171.82" y2= "3897.12" />
   <line class="fil2 str1" x1="8630.44" y1="5461.41" x2="9142.79" y2= "4369.68" />
   <line class="fil1 str0" x1="9142.79" y1="4369.68" x2="9990.42" y2= "5531.16" />
   <line class="fil1 str0" x1="9990.42" y1="5531.16" x2="8630.44" y2= "5461.41" />
   <line class="fil2 str1" x1="9570.97" y1="7047.03" x2="9183.43" y2= "6829.27" />
   <line class="fil1 str0" x1="9183.43" y1="6829.27" x2="9215.36" y2= "6467.78" />
   <line class="fil2 str1" x1="9215.36" y1="6467.78" x2="9071.67" y2= "6238.57" />
   <line class="fil2 str1" x1="8398.21" y1="7086.89" x2="9183.43" y2= "6829.27" />
   <line class="fil2 str1" x1="8398.21" y1="7086.89" x2="8221.14" y2= "6702.58" />
   <line class="fil1 str0" x1="8398.21" y1="7086.89" x2="8341.6" y2= "7196.5" />
   <line class="fil1 str0" x1="8653.66" y1="8228.49" x2="8148.56" y2= "8954.35" />
   <line class="fil1 str0" x1="8148.56" y1="8954.35" x2="7746.52" y2= "8824.83" />
   <line class="fil1 str0" x1="7746.52" y1="8824.83" x2="8350.31" y2= "7979.4" />
   <line class="fil2 str1" x1="8350.31" y1="7979.4" x2="8653.66" y2= "8228.49" />
   <line class="fil1 str0" x1="7746.52" y1="8824.83" x2="7569.44" y2= "8241.25" />
   <line class="fil1 str0" x1="7569.44" y1="8241.25" x2="7777" y2= "7647.7" />
   <line class="fil1 str0" x1="6660.13" y1="8865.39" x2="6424.26" y2= "8601.36" />
   <line class="fil2 str1" x1="6424.26" y1="8601.36" x2="6342.99" y2= "8609.89" />
   <line class="fil2 str1" x1="6342.99" y1="8609.89" x2="6300.9" y2= "8787.82" />
   <line class="fil1 str0" x1="6300.9" y1="8787.82" x2="6660.13" y2= "8865.39" />
   <line class="fil1 str0" x1="6660.13" y1="8865.39" x2="6592.63" y2= "9518.01" />
   <line class="fil1 str0" x1="6592.63" y1="9518.01" x2="6765.35" y2= "9536.51" />
   <line class="fil1 str0" x1="6765.35" y1="9536.51" x2="6907.59" y2= "9616.22" />
   <line class="fil1 str0" x1="4010.54" y1="9861.03" x2="3390.78" y2= "9250.41" />
   <line class="fil2 str1" x1="3390.78" y1="9250.41" x2="3514.14" y2= "9027.01" />
   <line class="fil2 str1" x1="3514.14" y1="9027.01" x2="4387.91" y2= "8878.92" />
   <line class="fil2 str1" x1="4387.91" y1="8878.92" x2="4186.16" y2= "9720.18" />
   <line class="fil1 str0" x1="4186.16" y1="9720.18" x2="4010.54" y2= "9861.03" />
   <line class="fil1 str0" x1="2233.99" y1="8964.32" x2="2048.2" y2= "8602.78" />
   <line class="fil1 str0" x1="2048.2" y1="8602.78" x2="1332.65" y2= "8550.11" />
   <line class="fil1 str0" x1="1332.65" y1="8550.11" x2="2199.16" y2= "8107.51" />
   <line class="fil1 str0" x1="2199.16" y1="8107.51" x2="2341.39" y2= "8096.12" />
   <line class="fil2 str1" x1="2341.39" y1="8096.12" x2="2048.2" y2= "8602.78" />
   <line class="fil1 str0" x1="695.47" y1="7782.92" x2="592.43" y2= "7337.41" />
   <line class="fil2 str1" x1="592.43" y1="7337.41" x2="1434.25" y2= "7448.43" />
   <line class="fil2 str1" x1="1434.25" y1="7448.43" x2="1194.76" y2= "7111.1" />
   <line class="fil1 str0" x1="1258.63" y1="6126.13" x2="368.9" y2= "5686.31" />
   <line class="fil1 str0" x1="368.9" y1="5686.31" x2="90.23" y2= "5524.05" />
   <line class="fil1 str0" x1="368.9" y1="5686.31" x2="544.53" y2= "5408.76" />
   <line class="fil2 str1" x1="544.53" y1="5408.76" x2="1014.78" y2= "5232.24" />
   <line class="fil2 str1" x1="1014.78" y1="5232.24" x2="1355.87" y2= "5253.59" />
   <line class="fil1 str0" x1="-36.05" y1="4418.09" x2="875.45" y2= "4381.09" />
   <line class="fil1 str0" x1="875.45" y1="4381.09" x2="1374.74" y2= "4119.19" />
   <line class="fil1 str0" x1="1374.74" y1="4119.19" x2="1297.82" y2= "4012.43" />
   <line class="fil1 str0" x1="1297.82" y1="4012.43" x2="1200.57" y2= "3475.82" />
   <line class="fil1 str0" x1="875.45" y1="4381.09" x2="506.78" y2= "3959.77" />
   <line class="fil1 str0" x1="1866.78" y1="3238.1" x2="1923.38" y2= "2539.29" />
   <line class="fil2 str1" x1="1923.38" y1="2539.29" x2="1215.09" y2= "2769.82" />
   <line class="fil1 str0" x1="2448.8" y1="873.95" x2="2434.29" y2= "1414.83" />
   <line class="fil1 str0" x1="2434.29" y1="1414.83" x2="2382.04" y2= "1540.08" />
   <line class="fil2 str1" x1="2382.04" y1="1540.08" x2="2553.3" y2= "1562.85" />
   <line class="fil1 str0" x1="2427.03" y1="1414.83" x2="2553.3" y2= "1562.85" />
   <line class="fil2 str1" x1="2382.04" y1="1540.08" x2="1630.19" y2= "1631.18" />
   <line class="fil1 str0" x1="1923.38" y1="2539.29" x2="2553.3" y2= "1562.85" />
   <line class="fil1 str0" x1="4245.67" y1="1098.83" x2="3665.1" y2= "179.35" />
   <line class="fil1 str0" x1="6300.9" y1="8787.82" x2="5810.31" y2= "8878.92" />
  </g>
  <g id="stars">
   <g id="dim">
    <path class="fil3" d="M6035.23 9219.12c0,-4.7 -3.88,-8.51 -8.68,-8.51 -4.79,0 -8.68,3.81 -8.68,8.51 0,4.71 3.89,8.52 8.68,8.52 4.8,0 8.68,-3.81 8.68,-8.52z"/>
    <path class="fil3" d="M5132.44 9737.23c0,-4.7 -3.89,-8.51 -8.68,-8.51 -4.8,0 -8.68,3.81 -8.68,8.51 0,4.71 3.88,8.52 8.68,8.52 4.79,0 8.68,-3.81 8.68,-8.52z"/>
    <path class="fil3" d="M3689.72 8707.37c0,-4.7 -3.89,-8.52 -8.68,-8.52 -4.8,0 -8.69,3.82 -8.69,8.52 0,4.7 3.89,8.51 8.69,8.51 4.79,0 8.68,-3.81 8.68,-8.51z"/>
    <path class="fil3" d="M3213.66 9754.25c0,-4.7 -3.89,-8.51 -8.69,-8.51 -4.79,0 -8.68,3.81 -8.68,8.51 0,4.71 3.89,8.52 8.68,8.52 4.8,0 8.69,-3.81 8.69,-8.52z"/>
    <path class="fil3" d="M5428.53 9153.6c0,-4.71 -3.89,-8.52 -8.68,-8.52 -4.8,0 -8.68,3.81 -8.68,8.52 0,4.7 3.88,8.51 8.68,8.51 4.79,0 8.68,-3.81 8.68,-8.51z"/>
    <path class="fil3" d="M4418.34 9281.7c0,-4.7 -3.89,-8.51 -8.68,-8.51 -4.8,0 -8.69,3.81 -8.69,8.51 0,4.7 3.89,8.52 8.69,8.52 4.79,0 8.68,-3.82 8.68,-8.52z"/>
    <path class="fil3" d="M3901.63 9372.85c0,-4.71 -3.88,-8.52 -8.68,-8.52 -4.79,0 -8.68,3.81 -8.68,8.52 0,4.7 3.89,8.51 8.68,8.51 4.8,0 8.68,-3.81 8.68,-8.51z"/>
    <path class="fil3" d="M6610 9939.36c0,-4.71 -3.89,-8.52 -8.68,-8.52 -4.8,0 -8.69,3.81 -8.69,8.52 0,4.7 3.89,8.51 8.69,8.51 4.79,0 8.68,-3.81 8.68,-8.51z"/>
    <path class="fil3" d="M6432.92 9720.16c0,-4.71 -3.89,-8.52 -8.68,-8.52 -4.8,0 -8.69,3.81 -8.69,8.52 0,4.7 3.89,8.51 8.69,8.51 4.79,0 8.68,-3.81 8.68,-8.51z"/>
    <path class="fil3" d="M7051.23 9045.48c0,-4.7 -3.89,-8.52 -8.68,-8.52 -4.8,0 -8.69,3.82 -8.69,8.52 0,4.7 3.89,8.51 8.69,8.51 4.79,0 8.68,-3.81 8.68,-8.51z"/>
    <path class="fil3" d="M6969.95 8945.84c0,-4.7 -3.89,-8.52 -8.68,-8.52 -4.8,0 -8.68,3.82 -8.68,8.52 0,4.7 3.88,8.51 8.68,8.51 4.79,0 8.68,-3.81 8.68,-8.51z"/>
    <path class="fil3" d="M7216.69 9455.35c0,-4.71 -3.89,-8.52 -8.68,-8.52 -4.8,0 -8.69,3.81 -8.69,8.52 0,4.7 3.89,8.51 8.69,8.51 4.79,0 8.68,-3.81 8.68,-8.51z"/>
    <path class="fil3" d="M7951.11 9284.6c0,-4.7 -3.89,-8.51 -8.68,-8.51 -4.8,0 -8.69,3.81 -8.69,8.51 0,4.71 3.89,8.52 8.69,8.52 4.79,0 8.68,-3.81 8.68,-8.52z"/>
    <path class="fil3" d="M8253.01 8450.52c0,-4.7 -3.88,-8.51 -8.68,-8.51 -4.8,0 -8.68,3.81 -8.68,8.51 0,4.71 3.88,8.52 8.68,8.52 4.8,0 8.68,-3.81 8.68,-8.52z"/>
    <path class="fil3" d="M9422.86 7670.44c0,-4.7 -3.89,-8.51 -8.68,-8.51 -4.8,0 -8.69,3.81 -8.69,8.51 0,4.71 3.89,8.52 8.69,8.52 4.79,0 8.68,-3.81 8.68,-8.52z"/>
    <path class="fil3" d="M8595.55 7687.46c0,-4.7 -3.89,-8.51 -8.69,-8.51 -4.79,0 -8.68,3.81 -8.68,8.51 0,4.71 3.89,8.52 8.68,8.52 4.8,0 8.69,-3.81 8.69,-8.52z"/>
    <path class="fil3" d="M8406.86 7422.78c0,-4.71 -3.88,-8.52 -8.68,-8.52 -4.79,0 -8.68,3.81 -8.68,8.52 0,4.7 3.89,8.51 8.68,8.51 4.8,0 8.68,-3.81 8.68,-8.51z"/>
    <path class="fil3" d="M9071.62 8043.44c0,-4.7 -3.89,-8.52 -8.68,-8.52 -4.8,0 -8.69,3.82 -8.69,8.52 0,4.7 3.89,8.51 8.69,8.51 4.79,0 8.68,-3.81 8.68,-8.51z"/>
    <path class="fil3" d="M9875.7 6657.03c0,-4.7 -3.88,-8.52 -8.68,-8.52 -4.79,0 -8.68,3.82 -8.68,8.52 0,4.7 3.89,8.51 8.68,8.51 4.8,0 8.68,-3.81 8.68,-8.51z"/>
    <path class="fil3" d="M8572.33 6400.9c0,-4.7 -3.89,-8.52 -8.69,-8.52 -4.79,0 -8.68,3.82 -8.68,8.52 0,4.7 3.89,8.51 8.68,8.51 4.8,0 8.69,-3.81 8.69,-8.51z"/>
    <path class="fil3" d="M8743.59 6665.54c0,-4.7 -3.89,-8.51 -8.68,-8.51 -4.8,0 -8.68,3.81 -8.68,8.51 0,4.71 3.88,8.52 8.68,8.52 4.79,0 8.68,-3.81 8.68,-8.52z"/>
    <path class="fil3" d="M9599.94 5635.12c0,-4.7 -3.89,-8.51 -8.68,-8.51 -4.8,0 -8.69,3.81 -8.69,8.51 0,4.71 3.89,8.52 8.69,8.52 4.79,0 8.68,-3.81 8.68,-8.52z"/>
    <path class="fil3" d="M9753.79 4100.73c0,-4.7 -3.89,-8.52 -8.69,-8.52 -4.79,0 -8.68,3.82 -8.68,8.52 0,4.7 3.89,8.51 8.68,8.51 4.8,0 8.69,-3.81 8.69,-8.51z"/>
    <path class="fil3" d="M9573.08 3946.91c0,-4.7 -3.88,-8.51 -8.68,-8.51 -4.79,0 -8.68,3.81 -8.68,8.51 0,4.71 3.89,8.52 8.68,8.52 4.8,0 8.68,-3.81 8.68,-8.52z"/>
    <path class="fil3" d="M8607.16 3374c0,-4.7 -3.88,-8.51 -8.68,-8.51 -4.79,0 -8.68,3.81 -8.68,8.51 0,4.7 3.89,8.52 8.68,8.52 4.8,0 8.68,-3.82 8.68,-8.52z"/>
    <path class="fil3" d="M9559.3 2757.03c0,-4.7 -3.89,-8.51 -8.69,-8.51 -4.79,0 -8.68,3.81 -8.68,8.51 0,4.7 3.89,8.52 8.68,8.52 4.8,0 8.69,-3.82 8.69,-8.52z"/>
    <path class="fil3" d="M9179.02 2609.05c0,-4.71 -3.89,-8.52 -8.68,-8.52 -4.8,0 -8.69,3.81 -8.69,8.52 0,4.7 3.89,8.51 8.69,8.51 4.79,0 8.68,-3.81 8.68,-8.51z"/>
    <path class="fil3" d="M7782.75 2765.54c0,-4.71 -3.89,-8.52 -8.68,-8.52 -4.8,0 -8.69,3.81 -8.69,8.52 0,4.7 3.89,8.51 8.69,8.51 4.79,0 8.68,-3.81 8.68,-8.51z"/>
    <path class="fil3" d="M8055.61 2401.24c0,-4.71 -3.88,-8.52 -8.68,-8.52 -4.8,0 -8.68,3.81 -8.68,8.52 0,4.7 3.88,8.51 8.68,8.51 4.8,0 8.68,-3.81 8.68,-8.51z"/>
    <path class="fil3" d="M8549.1 1888.82c0,-4.7 -3.88,-8.51 -8.68,-8.51 -4.8,0 -8.68,3.81 -8.68,8.51 0,4.71 3.88,8.52 8.68,8.52 4.8,0 8.68,-3.81 8.68,-8.52z"/>
    <path class="fil3" d="M7483.76 2193.43c0,-4.7 -3.89,-8.51 -8.69,-8.51 -4.79,0 -8.68,3.81 -8.68,8.51 0,4.71 3.89,8.52 8.68,8.52 4.8,0 8.69,-3.81 8.69,-8.52z"/>
    <path class="fil3" d="M6882.13 1086c0,-4.7 -3.88,-8.52 -8.68,-8.52 -4.8,0 -8.68,3.82 -8.68,8.52 0,4.7 3.88,8.51 8.68,8.51 4.8,0 8.68,-3.81 8.68,-8.51z"/>
    <path class="fil3" d="M7753.72 1094.51c0,-4.7 -3.88,-8.51 -8.68,-8.51 -4.8,0 -8.68,3.81 -8.68,8.51 0,4.71 3.88,8.52 8.68,8.52 4.8,0 8.68,-3.81 8.68,-8.52z"/>
    <path class="fil3" d="M6305.19 542.27c0,-4.7 -3.89,-8.51 -8.68,-8.51 -4.8,0 -8.69,3.81 -8.69,8.51 0,4.7 3.89,8.52 8.69,8.52 4.79,0 8.68,-3.82 8.68,-8.52z"/>
    <path class="fil3" d="M5173.08 1524.48c0,-4.7 -3.89,-8.51 -8.69,-8.51 -4.79,0 -8.68,3.81 -8.68,8.51 0,4.7 3.89,8.51 8.68,8.51 4.8,0 8.69,-3.81 8.69,-8.51z"/>
    <path class="fil3" d="M5406.76 345.93c0,-4.7 -3.89,-8.51 -8.68,-8.51 -4.8,0 -8.68,3.81 -8.68,8.51 0,4.7 3.88,8.52 8.68,8.52 4.79,0 8.68,-3.82 8.68,-8.52z"/>
    <path class="fil3" d="M4472.76 446.2c0,-4.7 -3.89,-8.51 -8.69,-8.51 -4.79,0 -8.68,3.81 -8.68,8.51 0,4.71 3.89,8.52 8.68,8.52 4.8,0 8.69,-3.81 8.69,-8.52z"/>
    <path class="fil3" d="M3434.27 821.25c0,-4.71 -3.89,-8.52 -8.68,-8.52 -4.8,0 -8.69,3.81 -8.69,8.52 0,4.7 3.89,8.51 8.69,8.51 4.79,0 8.68,-3.81 8.68,-8.51z"/>
    <path class="fil3" d="M4104.83 1491.66c0,-4.7 -3.89,-8.52 -8.68,-8.52 -4.8,0 -8.69,3.82 -8.69,8.52 0,4.7 3.89,8.51 8.69,8.51 4.79,0 8.68,-3.81 8.68,-8.51z"/>
    <path class="fil3" d="M3016.26 1273.97c0,-4.7 -3.89,-8.51 -8.68,-8.51 -4.8,0 -8.69,3.81 -8.69,8.51 0,4.7 3.89,8.52 8.69,8.52 4.79,0 8.68,-3.82 8.68,-8.52z"/>
    <path class="fil3" d="M2618.56 1928.71c0,-4.7 -3.89,-8.51 -8.68,-8.51 -4.8,0 -8.68,3.81 -8.68,8.51 0,4.71 3.88,8.52 8.68,8.52 4.79,0 8.68,-3.81 8.68,-8.52z"/>
    <path class="fil3" d="M1474.84 1971.42c0,-4.71 -3.89,-8.52 -8.68,-8.52 -4.8,0 -8.69,3.81 -8.69,8.52 0,4.7 3.89,8.51 8.69,8.51 4.79,0 8.68,-3.81 8.68,-8.51z"/>
    <path class="fil3" d="M2213.6 2477.24c0,-4.71 -3.88,-8.52 -8.68,-8.52 -4.79,0 -8.68,3.81 -8.68,8.52 0,4.7 3.89,8.51 8.68,8.51 4.8,0 8.68,-3.81 8.68,-8.51z"/>
    <path class="fil3" d="M1483.51 2959.24c0,-4.71 -3.89,-8.52 -8.68,-8.52 -4.8,0 -8.68,3.81 -8.68,8.52 0,4.7 3.88,8.51 8.68,8.51 4.79,0 8.68,-3.81 8.68,-8.51z"/>
    <path class="fil3" d="M1741.9 3625.37c0,-4.7 -3.89,-8.51 -8.69,-8.51 -4.79,0 -8.68,3.81 -8.68,8.51 0,4.7 3.89,8.52 8.68,8.52 4.8,0 8.69,-3.82 8.69,-8.52z"/>
    <path class="fil3" d="M1091.66 3653.84c0,-4.7 -3.89,-8.52 -8.68,-8.52 -4.8,0 -8.68,3.82 -8.68,8.52 0,4.7 3.88,8.51 8.68,8.51 4.79,0 8.68,-3.81 8.68,-8.51z"/>
    <path class="fil3" d="M281.76 3531.43c0,-4.7 -3.88,-8.51 -8.68,-8.51 -4.79,0 -8.68,3.81 -8.68,8.51 0,4.7 3.89,8.52 8.68,8.52 4.8,0 8.68,-3.82 8.68,-8.52z"/>
    <path class="fil3" d="M1419.69 4581.87c0,-4.7 -3.89,-8.51 -8.68,-8.51 -4.8,0 -8.69,3.81 -8.69,8.51 0,4.71 3.89,8.52 8.69,8.52 4.79,0 8.68,-3.81 8.68,-8.52z"/>
    <path class="fil3" d="M667.84 5014.58c0,-4.7 -3.88,-8.51 -8.68,-8.51 -4.8,0 -8.68,3.81 -8.68,8.51 0,4.71 3.88,8.52 8.68,8.52 4.8,0 8.68,-3.81 8.68,-8.52z"/>
    <path class="fil3" d="M1561.92 5652.25c0,-4.71 -3.88,-8.52 -8.68,-8.52 -4.79,0 -8.68,3.81 -8.68,8.52 0,4.7 3.89,8.51 8.68,8.51 4.8,0 8.68,-3.81 8.68,-8.51z"/>
    <path class="fil3" d="M998.77 6338.32c0,-4.71 -3.89,-8.52 -8.69,-8.52 -4.79,0 -8.68,3.81 -8.68,8.52 0,4.7 3.89,8.51 8.68,8.51 4.8,0 8.69,-3.81 8.69,-8.51z"/>
    <path class="fil3" d="M397.88 5948.31c0,-4.7 -3.89,-8.51 -8.69,-8.51 -4.79,0 -8.68,3.81 -8.68,8.51 0,4.7 3.89,8.52 8.68,8.52 4.8,0 8.69,-3.82 8.69,-8.52z"/>
    <path class="fil3" d="M1500.97 6671.24c0,-4.7 -3.89,-8.51 -8.69,-8.51 -4.79,0 -8.68,3.81 -8.68,8.51 0,4.7 3.89,8.52 8.68,8.52 4.8,0 8.69,-3.82 8.69,-8.52z"/>
    <path class="fil3" d="M1884.14 7158.18c0,-4.71 -3.89,-8.52 -8.68,-8.52 -4.8,0 -8.68,3.81 -8.68,8.52 0,4.7 3.88,8.51 8.68,8.51 4.79,0 8.68,-3.81 8.68,-8.51z"/>
    <path class="fil3" d="M920.39 7835.7c0,-4.71 -3.89,-8.52 -8.68,-8.52 -4.8,0 -8.68,3.81 -8.68,8.52 0,4.7 3.88,8.51 8.68,8.51 4.79,0 8.68,-3.81 8.68,-8.51z"/>
    <path class="fil3" d="M1991.54 7465.48c0,-4.7 -3.88,-8.52 -8.68,-8.52 -4.79,0 -8.68,3.82 -8.68,8.52 0,4.7 3.89,8.51 8.68,8.51 4.8,0 8.68,-3.81 8.68,-8.51z"/>
    <path class="fil3" d="M2107.66 7676.28c0,-4.71 -3.89,-8.52 -8.69,-8.52 -4.79,0 -8.68,3.81 -8.68,8.52 0,4.7 3.89,8.51 8.68,8.51 4.8,0 8.69,-3.81 8.69,-8.51z"/>
    <path class="fil3" d="M2740.48 7801.39c0,-4.7 -3.88,-8.51 -8.68,-8.51 -4.8,0 -8.68,3.81 -8.68,8.51 0,4.7 3.88,8.52 8.68,8.52 4.8,0 8.68,-3.82 8.68,-8.52z"/>
    <path class="fil3" d="M2592.44 8792.05c0,-4.7 -3.89,-8.51 -8.69,-8.51 -4.79,0 -8.68,3.81 -8.68,8.51 0,4.71 3.89,8.52 8.68,8.52 4.8,0 8.69,-3.81 8.69,-8.52z"/>
    <path class="fil3" d="M3138.18 9091.11c0,-4.71 -3.89,-8.52 -8.69,-8.52 -4.79,0 -8.68,3.81 -8.68,8.52 0,4.7 3.89,8.51 8.68,8.51 4.8,0 8.69,-3.81 8.69,-8.51z"/>
    <path class="fil3" d="M3007.55 9236.15c0,-4.71 -3.89,-8.52 -8.68,-8.52 -4.8,0 -8.69,3.81 -8.69,8.52 0,4.7 3.89,8.51 8.69,8.51 4.79,0 8.68,-3.81 8.68,-8.51z"/>
    <path class="fil3" d="M4009.04 8527.45c0,-4.7 -3.89,-8.51 -8.69,-8.51 -4.79,0 -8.68,3.81 -8.68,8.51 0,4.71 3.89,8.52 8.68,8.52 4.8,0 8.69,-3.81 8.69,-8.52z"/>
    <path class="fil3" d="M5376.33 9247.63c0,-1.97 -1.62,-3.56 -3.63,-3.56 -2,0 -3.63,1.59 -3.63,3.56 0,1.96 1.63,3.56 3.63,3.56 2.01,0 3.63,-1.6 3.63,-3.56z"/>
    <path class="fil3" d="M4858.18 9313.81c0,-1.96 -1.63,-3.56 -3.63,-3.56 -2.01,0 -3.63,1.6 -3.63,3.56 0,1.97 1.62,3.56 3.63,3.56 2,0 3.63,-1.59 3.63,-3.56z"/>
    <path class="fil3" d="M3882.82 9441.91c0,-1.96 -1.63,-3.56 -3.63,-3.56 -2.01,0 -3.63,1.6 -3.63,3.56 0,1.97 1.62,3.56 3.63,3.56 2,0 3.63,-1.59 3.63,-3.56z"/>
    <path class="fil3" d="M4863.98 9897.39c0,-1.97 -1.62,-3.56 -3.63,-3.56 -2,0 -3.63,1.59 -3.63,3.56 0,1.97 1.63,3.56 3.63,3.56 2.01,0 3.63,-1.59 3.63,-3.56z"/>
    <path class="fil3" d="M6736.33 9726.59c0,-1.97 -1.63,-3.56 -3.64,-3.56 -2,0 -3.63,1.59 -3.63,3.56 0,1.96 1.63,3.56 3.63,3.56 2.01,0 3.64,-1.6 3.64,-3.56z"/>
    <path class="fil3" d="M6498.29 9157.24c0,-1.96 -1.62,-3.56 -3.63,-3.56 -2,0 -3.63,1.6 -3.63,3.56 0,1.97 1.63,3.56 3.63,3.56 2.01,0 3.63,-1.59 3.63,-3.56z"/>
    <path class="fil3" d="M7096.29 8548.04c0,-1.97 -1.63,-3.56 -3.63,-3.56 -2.01,0 -3.64,1.59 -3.64,3.56 0,1.96 1.63,3.56 3.64,3.56 2,0 3.63,-1.6 3.63,-3.56z"/>
    <path class="fil3" d="M7737.81 9029.14c0,-1.97 -1.62,-3.56 -3.63,-3.56 -2,0 -3.63,1.59 -3.63,3.56 0,1.96 1.63,3.56 3.63,3.56 2.01,0 3.63,-1.6 3.63,-3.56z"/>
    <path class="fil3" d="M8225.49 8459.79c0,-1.96 -1.63,-3.56 -3.63,-3.56 -2.01,0 -3.63,1.6 -3.63,3.56 0,1.97 1.62,3.56 3.63,3.56 2,0 3.63,-1.59 3.63,-3.56z"/>
    <path class="fil3" d="M8608.67 8801.4c0,-1.97 -1.63,-3.56 -3.63,-3.56 -2.01,0 -3.63,1.59 -3.63,3.56 0,1.96 1.62,3.56 3.63,3.56 2,0 3.63,-1.6 3.63,-3.56z"/>
    <path class="fil3" d="M7906.17 7335.33c0,-1.97 -1.62,-3.56 -3.63,-3.56 -2,0 -3.63,1.59 -3.63,3.56 0,1.96 1.63,3.56 3.63,3.56 2.01,0 3.63,-1.6 3.63,-3.56z"/>
    <path class="fil3" d="M8475.14 7252.78c0,-1.97 -1.63,-3.56 -3.63,-3.56 -2.01,0 -3.63,1.59 -3.63,3.56 0,1.96 1.62,3.56 3.63,3.56 2,0 3.63,-1.6 3.63,-3.56z"/>
    <path class="fil3" d="M8089.05 7685.48c0,-1.97 -1.62,-3.56 -3.63,-3.56 -2,0 -3.63,1.59 -3.63,3.56 0,1.96 1.63,3.56 3.63,3.56 2.01,0 3.63,-1.6 3.63,-3.56z"/>
    <path class="fil3" d="M8533.19 6709.05c0,-1.97 -1.63,-3.56 -3.63,-3.56 -2.01,0 -3.63,1.59 -3.63,3.56 0,1.96 1.62,3.56 3.63,3.56 2,0 3.63,-1.6 3.63,-3.56z"/>
    <path class="fil3" d="M9055.7 7247.08c0,-1.97 -1.62,-3.56 -3.63,-3.56 -2,0 -3.63,1.59 -3.63,3.56 0,1.96 1.63,3.56 3.63,3.56 2.01,0 3.63,-1.6 3.63,-3.56z"/>
    <path class="fil3" d="M9406.96 6748.9c0,-1.96 -1.63,-3.56 -3.64,-3.56 -2,0 -3.63,1.6 -3.63,3.56 0,1.97 1.63,3.56 3.63,3.56 2.01,0 3.64,-1.59 3.64,-3.56z"/>
    <path class="fil3" d="M8704.46 6481.3c0,-1.96 -1.62,-3.56 -3.63,-3.56 -2,0 -3.63,1.6 -3.63,3.56 0,1.97 1.63,3.56 3.63,3.56 2.01,0 3.63,-1.59 3.63,-3.56z"/>
    <path class="fil3" d="M9224.08 5897.73c0,-1.97 -1.63,-3.56 -3.63,-3.56 -2.01,0 -3.63,1.59 -3.63,3.56 0,1.96 1.62,3.56 3.63,3.56 2,0 3.63,-1.6 3.63,-3.56z"/>
    <path class="fil3" d="M8954.11 5675.68c0,-1.96 -1.63,-3.56 -3.63,-3.56 -2,0 -3.63,1.6 -3.63,3.56 0,1.97 1.63,3.56 3.63,3.56 2,0 3.63,-1.59 3.63,-3.56z"/>
    <path class="fil3" d="M9578.22 6353.2c0,-1.96 -1.63,-3.56 -3.63,-3.56 -2.01,0 -3.63,1.6 -3.63,3.56 0,1.97 1.62,3.56 3.63,3.56 2,0 3.63,-1.59 3.63,-3.56z"/>
    <path class="fil3" d="M9639.19 5319.85c0,-1.97 -1.63,-3.56 -3.63,-3.56 -2.01,0 -3.63,1.59 -3.63,3.56 0,1.96 1.62,3.56 3.63,3.56 2,0 3.63,-1.6 3.63,-3.56z"/>
    <path class="fil3" d="M9186.34 4981.08c0,-1.97 -1.62,-3.56 -3.63,-3.56 -2,0 -3.63,1.59 -3.63,3.56 0,1.96 1.63,3.56 3.63,3.56 2.01,0 3.63,-1.6 3.63,-3.56z"/>
    <path class="fil3" d="M8826.38 4491.44c0,-1.96 -1.62,-3.56 -3.63,-3.56 -2,0 -3.63,1.6 -3.63,3.56 0,1.97 1.63,3.56 3.63,3.56 2.01,0 3.63,-1.59 3.63,-3.56z"/>
    <path class="fil3" d="M9795.94 4807.43c0,-1.96 -1.62,-3.56 -3.63,-3.56 -2,0 -3.63,1.6 -3.63,3.56 0,1.97 1.63,3.56 3.63,3.56 2.01,0 3.63,-1.59 3.63,-3.56z"/>
    <path class="fil3" d="M9447.6 4169.76c0,-1.97 -1.62,-3.56 -3.63,-3.56 -2,0 -3.63,1.59 -3.63,3.56 0,1.96 1.63,3.56 3.63,3.56 2.01,0 3.63,-1.6 3.63,-3.56z"/>
    <path class="fil3" d="M8489.66 4095.74c0,-1.96 -1.63,-3.56 -3.63,-3.56 -2.01,0 -3.63,1.6 -3.63,3.56 0,1.97 1.62,3.56 3.63,3.56 2,0 3.63,-1.59 3.63,-3.56z"/>
    <path class="fil3" d="M8869.93 3238.88c0,-1.97 -1.63,-3.56 -3.63,-3.56 -2.01,0 -3.64,1.59 -3.64,3.56 0,1.96 1.63,3.56 3.64,3.56 2,0 3.63,-1.6 3.63,-3.56z"/>
    <path class="fil3" d="M9453.4 3648.81c0,-1.97 -1.63,-3.56 -3.63,-3.56 -2,0 -3.63,1.59 -3.63,3.56 0,1.96 1.63,3.56 3.63,3.56 2,0 3.63,-1.6 3.63,-3.56z"/>
    <path class="fil3" d="M9479.52 2968.43c0,-1.96 -1.62,-3.56 -3.63,-3.56 -2,0 -3.63,1.6 -3.63,3.56 0,1.97 1.63,3.56 3.63,3.56 2.01,0 3.63,-1.59 3.63,-3.56z"/>
    <path class="fil3" d="M8144.21 2601.21c0,-1.97 -1.62,-3.57 -3.63,-3.57 -2,0 -3.63,1.6 -3.63,3.57 0,1.96 1.63,3.56 3.63,3.56 2.01,0 3.63,-1.6 3.63,-3.56z"/>
    <path class="fil3" d="M8109.38 2999.75c0,-1.96 -1.63,-3.56 -3.63,-3.56 -2.01,0 -3.63,1.6 -3.63,3.56 0,1.97 1.62,3.56 3.63,3.56 2,0 3.63,-1.59 3.63,-3.56z"/>
    <path class="fil3" d="M8274.84 2071.71c0,-1.96 -1.62,-3.56 -3.63,-3.56 -2,0 -3.63,1.6 -3.63,3.56 0,1.97 1.63,3.56 3.63,3.56 2.01,0 3.63,-1.59 3.63,-3.56z"/>
    <path class="fil3" d="M7337.22 2157.12c0,-1.97 -1.63,-3.57 -3.64,-3.57 -2,0 -3.63,1.6 -3.63,3.57 0,1.96 1.63,3.56 3.63,3.56 2.01,0 3.64,-1.6 3.64,-3.56z"/>
    <path class="fil3" d="M7546.22 2464.56c0,-1.96 -1.62,-3.56 -3.63,-3.56 -2,0 -3.63,1.6 -3.63,3.56 0,1.97 1.63,3.56 3.63,3.56 2.01,0 3.63,-1.59 3.63,-3.56z"/>
    <path class="fil3" d="M7662.33 1342.95c0,-1.97 -1.62,-3.56 -3.63,-3.56 -2,0 -3.63,1.59 -3.63,3.56 0,1.96 1.63,3.56 3.63,3.56 2.01,0 3.63,-1.6 3.63,-3.56z"/>
    <path class="fil3" d="M7284.96 1673.17c0,-1.96 -1.62,-3.56 -3.63,-3.56 -2,0 -3.63,1.6 -3.63,3.56 0,1.97 1.63,3.57 3.63,3.57 2.01,0 3.63,-1.6 3.63,-3.57z"/>
    <path class="fil3" d="M6933.72 1078.2c0,-1.96 -1.62,-3.56 -3.63,-3.56 -2,0 -3.63,1.6 -3.63,3.56 0,1.97 1.63,3.56 3.63,3.56 2.01,0 3.63,-1.59 3.63,-3.56z"/>
    <path class="fil3" d="M6367.67 1721.56c0,-1.96 -1.63,-3.56 -3.64,-3.56 -2,0 -3.63,1.6 -3.63,3.56 0,1.97 1.63,3.56 3.63,3.56 2.01,0 3.64,-1.59 3.64,-3.56z"/>
    <path class="fil3" d="M6509.9 742.29c0,-1.96 -1.62,-3.56 -3.63,-3.56 -2,0 -3.63,1.6 -3.63,3.56 0,1.97 1.63,3.56 3.63,3.56 2.01,0 3.63,-1.59 3.63,-3.56z"/>
    <path class="fil3" d="M6785.68 881.78c0,-1.97 -1.63,-3.56 -3.63,-3.56 -2.01,0 -3.63,1.59 -3.63,3.56 0,1.96 1.62,3.56 3.63,3.56 2,0 3.63,-1.6 3.63,-3.56z"/>
    <path class="fil3" d="M5917.72 1018.42c0,-1.96 -1.63,-3.56 -3.63,-3.56 -2.01,0 -3.63,1.6 -3.63,3.56 0,1.97 1.62,3.56 3.63,3.56 2,0 3.63,-1.59 3.63,-3.56z"/>
    <path class="fil3" d="M5357.47 1351.49c0,-1.97 -1.63,-3.56 -3.63,-3.56 -2.01,0 -3.63,1.59 -3.63,3.56 0,1.97 1.62,3.56 3.63,3.56 2,0 3.63,-1.59 3.63,-3.56z"/>
    <path class="fil3" d="M4373.4 631.27c0,-1.97 -1.63,-3.56 -3.63,-3.56 -2,0 -3.63,1.59 -3.63,3.56 0,1.96 1.63,3.56 3.63,3.56 2,0 3.63,-1.6 3.63,-3.56z"/>
    <path class="fil3" d="M4736.25 1123.75c0,-1.97 -1.62,-3.56 -3.63,-3.56 -2,0 -3.63,1.59 -3.63,3.56 0,1.96 1.63,3.56 3.63,3.56 2.01,0 3.63,-1.6 3.63,-3.56z"/>
    <path class="fil3" d="M3987.31 1565c0,-1.97 -1.62,-3.57 -3.63,-3.57 -2,0 -3.63,1.6 -3.63,3.57 0,1.96 1.63,3.56 3.63,3.56 2.01,0 3.63,-1.6 3.63,-3.56z"/>
    <path class="fil3" d="M3935.06 642.65c0,-1.96 -1.62,-3.56 -3.63,-3.56 -2,0 -3.63,1.6 -3.63,3.56 0,1.97 1.63,3.56 3.63,3.56 2.01,0 3.63,-1.59 3.63,-3.56z"/>
    <path class="fil3" d="M4750.77 480.39c0,-1.97 -1.63,-3.56 -3.63,-3.56 -2.01,0 -3.63,1.59 -3.63,3.56 0,1.96 1.62,3.56 3.63,3.56 2,0 3.63,-1.6 3.63,-3.56z"/>
    <path class="fil3" d="M2866.82 807.76c0,-1.97 -1.63,-3.56 -3.63,-3.56 -2.01,0 -3.63,1.59 -3.63,3.56 0,1.97 1.62,3.56 3.63,3.56 2,0 3.63,-1.59 3.63,-3.56z"/>
    <path class="fil3" d="M2054.01 1308.79c0,-1.97 -1.63,-3.56 -3.63,-3.56 -2.01,0 -3.63,1.59 -3.63,3.56 0,1.96 1.62,3.56 3.63,3.56 2,0 3.63,-1.6 3.63,-3.56z"/>
    <path class="fil3" d="M2579.43 1992.01c0,-1.97 -1.62,-3.56 -3.63,-3.56 -2,0 -3.63,1.59 -3.63,3.56 0,1.96 1.63,3.56 3.63,3.56 2.01,0 3.63,-1.6 3.63,-3.56z"/>
    <path class="fil3" d="M1499.57 2011.93c0,-1.97 -1.63,-3.56 -3.63,-3.56 -2,0 -3.63,1.59 -3.63,3.56 0,1.96 1.63,3.56 3.63,3.56 2,0 3.63,-1.6 3.63,-3.56z"/>
    <path class="fil3" d="M1618.58 2370.62c0,-1.97 -1.62,-3.56 -3.63,-3.56 -2,0 -3.63,1.59 -3.63,3.56 0,1.96 1.63,3.56 3.63,3.56 2.01,0 3.63,-1.6 3.63,-3.56z"/>
    <path class="fil3" d="M2591.04 2125.8c0,-1.97 -1.62,-3.56 -3.63,-3.56 -2,0 -3.63,1.59 -3.63,3.56 0,1.96 1.63,3.56 3.63,3.56 2.01,0 3.63,-1.6 3.63,-3.56z"/>
    <path class="fil3" d="M1897.25 2726.46c0,-1.96 -1.62,-3.56 -3.63,-3.56 -2,0 -3.63,1.6 -3.63,3.56 0,1.97 1.63,3.56 3.63,3.56 2.01,0 3.63,-1.59 3.63,-3.56z"/>
    <path class="fil3" d="M747.72 2541.42c0,-1.96 -1.62,-3.56 -3.63,-3.56 -2,0 -3.63,1.6 -3.63,3.56 0,1.97 1.63,3.56 3.63,3.56 2.01,0 3.63,-1.59 3.63,-3.56z"/>
    <path class="fil3" d="M1723.09 3090.85c0,-1.97 -1.63,-3.56 -3.64,-3.56 -2,0 -3.63,1.59 -3.63,3.56 0,1.96 1.63,3.56 3.63,3.56 2.01,0 3.64,-1.6 3.64,-3.56z"/>
    <path class="fil3" d="M1653.42 3566.25c0,-1.97 -1.63,-3.56 -3.63,-3.56 -2.01,0 -3.64,1.59 -3.64,3.56 0,1.96 1.63,3.56 3.64,3.56 2,0 3.63,-1.6 3.63,-3.56z"/>
    <path class="fil3" d="M881.26 3574.79c0,-1.97 -1.62,-3.56 -3.63,-3.56 -2,0 -3.63,1.59 -3.63,3.56 0,1.96 1.63,3.56 3.63,3.56 2.01,0 3.63,-1.6 3.63,-3.56z"/>
    <path class="fil3" d="M1418.29 4289.32c0,-1.96 -1.63,-3.56 -3.63,-3.56 -2.01,0 -3.64,1.6 -3.64,3.56 0,1.97 1.63,3.56 3.64,3.56 2,0 3.63,-1.59 3.63,-3.56z"/>
    <path class="fil3" d="M637.42 3705.74c0,-1.96 -1.63,-3.56 -3.63,-3.56 -2,0 -3.63,1.6 -3.63,3.56 0,1.97 1.63,3.56 3.63,3.56 2,0 3.63,-1.59 3.63,-3.56z"/>
    <path class="fil3" d="M1592.46 4420.27c0,-1.97 -1.63,-3.56 -3.64,-3.56 -2,0 -3.63,1.59 -3.63,3.56 0,1.96 1.63,3.56 3.63,3.56 2.01,0 3.64,-1.6 3.64,-3.56z"/>
    <path class="fil3" d="M1360.23 4824.51c0,-1.96 -1.62,-3.56 -3.63,-3.56 -2,0 -3.63,1.6 -3.63,3.56 0,1.97 1.63,3.56 3.63,3.56 2.01,0 3.63,-1.59 3.63,-3.56z"/>
    <path class="fil3" d="M1142.52 5493.49c0,-1.96 -1.63,-3.56 -3.63,-3.56 -2.01,0 -3.63,1.6 -3.63,3.56 0,1.97 1.62,3.56 3.63,3.56 2,0 3.63,-1.59 3.63,-3.56z"/>
    <path class="fil3" d="M802.88 4981.08c0,-1.97 -1.62,-3.56 -3.63,-3.56 -2,0 -3.63,1.59 -3.63,3.56 0,1.96 1.63,3.56 3.63,3.56 2.01,0 3.63,-1.6 3.63,-3.56z"/>
    <path class="fil3" d="M181.68 5205.97c0,-1.97 -1.63,-3.56 -3.63,-3.56 -2.01,0 -3.64,1.59 -3.64,3.56 0,1.96 1.63,3.56 3.64,3.56 2,0 3.63,-1.6 3.63,-3.56z"/>
    <path class="fil3" d="M1183.16 5852.18c0,-1.97 -1.62,-3.56 -3.63,-3.56 -2,0 -3.63,1.59 -3.63,3.56 0,1.97 1.63,3.56 3.63,3.56 2.01,0 3.63,-1.59 3.63,-3.56z"/>
    <path class="fil3" d="M741.92 6122.62c0,-1.96 -1.62,-3.56 -3.63,-3.56 -2,0 -3.63,1.6 -3.63,3.56 0,1.97 1.63,3.56 3.63,3.56 2.01,0 3.63,-1.59 3.63,-3.56z"/>
    <path class="fil3" d="M1633.1 6606.56c0,-1.96 -1.63,-3.56 -3.63,-3.56 -2.01,0 -3.63,1.6 -3.63,3.56 0,1.97 1.62,3.57 3.63,3.57 2,0 3.63,-1.6 3.63,-3.57z"/>
    <path class="fil3" d="M1499.57 7064.89c0,-1.96 -1.63,-3.56 -3.63,-3.56 -2,0 -3.63,1.6 -3.63,3.56 0,1.97 1.63,3.56 3.63,3.56 2,0 3.63,-1.59 3.63,-3.56z"/>
    <path class="fil3" d="M1122.19 6748.9c0,-1.96 -1.62,-3.56 -3.63,-3.56 -2,0 -3.63,1.6 -3.63,3.56 0,1.97 1.63,3.56 3.63,3.56 2.01,0 3.63,-1.59 3.63,-3.56z"/>
    <path class="fil3" d="M1926.29 7278.4c0,-1.97 -1.62,-3.57 -3.63,-3.57 -2,0 -3.63,1.6 -3.63,3.57 0,1.96 1.63,3.56 3.63,3.56 2.01,0 3.63,-1.6 3.63,-3.56z"/>
    <path class="fil3" d="M860.93 7523.22c0,-1.97 -1.62,-3.56 -3.63,-3.56 -2,0 -3.63,1.59 -3.63,3.56 0,1.97 1.63,3.56 3.63,3.56 2.01,0 3.63,-1.59 3.63,-3.56z"/>
    <path class="fil3" d="M2440.1 7861.97c0,-1.96 -1.63,-3.56 -3.63,-3.56 -2.01,0 -3.63,1.6 -3.63,3.56 0,1.97 1.62,3.56 3.63,3.56 2,0 3.63,-1.59 3.63,-3.56z"/>
    <path class="fil3" d="M2231.09 8152.34c0,-1.96 -1.62,-3.56 -3.63,-3.56 -2,0 -3.63,1.6 -3.63,3.56 0,1.97 1.63,3.56 3.63,3.56 2.01,0 3.63,-1.59 3.63,-3.56z"/>
    <path class="fil3" d="M1752.12 7950.23c0,-1.97 -1.63,-3.56 -3.63,-3.56 -2.01,0 -3.63,1.59 -3.63,3.56 0,1.96 1.62,3.56 3.63,3.56 2,0 3.63,-1.6 3.63,-3.56z"/>
    <path class="fil3" d="M2384.95 8656.22c0,-1.97 -1.63,-3.56 -3.63,-3.56 -2.01,0 -3.64,1.59 -3.64,3.56 0,1.96 1.63,3.56 3.64,3.56 2,0 3.63,-1.6 3.63,-3.56z"/>
    <path class="fil3" d="M1911.77 8943.74c0,-1.97 -1.62,-3.56 -3.63,-3.56 -2,0 -3.63,1.59 -3.63,3.56 0,1.96 1.63,3.56 3.63,3.56 2.01,0 3.63,-1.6 3.63,-3.56z"/>
    <path class="fil3" d="M3351.6 8602.13c0,-1.96 -1.63,-3.56 -3.63,-3.56 -2.01,0 -3.63,1.6 -3.63,3.56 0,1.97 1.62,3.56 3.63,3.56 2,0 3.63,-1.59 3.63,-3.56z"/>
    <path class="fil3" d="M3697.03 9111.7c0,-1.97 -1.62,-3.56 -3.63,-3.56 -2,0 -3.63,1.59 -3.63,3.56 0,1.97 1.63,3.56 3.63,3.56 2.01,0 3.63,-1.59 3.63,-3.56z"/>
    <path class="fil3" d="M3145.49 9444.77c0,-1.97 -1.63,-3.56 -3.63,-3.56 -2,0 -3.63,1.59 -3.63,3.56 0,1.96 1.63,3.56 3.63,3.56 2,0 3.63,-1.6 3.63,-3.56z"/>
    <path class="fil3" d="M3276.12 8846.95c0,-1.96 -1.63,-3.56 -3.63,-3.56 -2,0 -3.63,1.6 -3.63,3.56 0,1.97 1.63,3.56 3.63,3.56 2,0 3.63,-1.59 3.63,-3.56z"/>
    <path class="fil3" d="M2721.67 9319.51c0,-1.97 -1.62,-3.56 -3.63,-3.56 -2,0 -3.63,1.59 -3.63,3.56 0,1.96 1.63,3.56 3.63,3.56 2.01,0 3.63,-1.6 3.63,-3.56z"/>
    <path class="fil3" d="M4086.02 9712.36c0,-1.97 -1.63,-3.56 -3.63,-3.56 -2.01,0 -3.63,1.59 -3.63,3.56 0,1.96 1.62,3.56 3.63,3.56 2,0 3.63,-1.6 3.63,-3.56z"/>
    <path class="fil3" d="M4300.83 8647.67c0,-1.96 -1.62,-3.56 -3.63,-3.56 -2,0 -3.63,1.6 -3.63,3.56 0,1.97 1.63,3.57 3.63,3.57 2.01,0 3.63,-1.6 3.63,-3.57z"/>
    <path class="fil3" d="M4515.64 8508.19c0,-1.97 -1.63,-3.56 -3.63,-3.56 -2.01,0 -3.63,1.59 -3.63,3.56 0,1.96 1.62,3.56 3.63,3.56 2,0 3.63,-1.6 3.63,-3.56z"/>
    <path class="fil3" d="M4762.39 9504.55c0,-1.97 -1.63,-3.56 -3.64,-3.56 -2,0 -3.63,1.59 -3.63,3.56 0,1.96 1.63,3.56 3.63,3.56 2.01,0 3.64,-1.6 3.64,-3.56z"/>
   </g>
   <g id="medium">
    <path class="fil4" d="M5985.93 1483.14c0,-3.92 -3.24,-7.11 -7.25,-7.11 -4,0 -7.25,3.19 -7.25,7.11 0,3.93 3.25,7.12 7.25,7.12 4.01,0 7.25,-3.19 7.25,-7.12z"/>
    <path class="fil4" d="M6816.16 1972.79c0,-5.5 -4.55,-9.96 -10.17,-9.96 -5.61,0 -10.16,4.46 -10.16,9.96 0,5.51 4.55,9.97 10.16,9.97 5.62,0 10.17,-4.46 10.17,-9.97z"/>
    <path class="fil4" d="M5045.41 -4.27c0,-4.71 -3.9,-8.54 -8.71,-8.54 -4.81,0 -8.71,3.83 -8.71,8.54 0,4.72 3.9,8.54 8.71,8.54 4.81,0 8.71,-3.82 8.71,-8.54z"/>
    <path class="fil4" d="M5916.26 609.2c0,-5.5 -4.55,-9.96 -10.16,-9.96 -5.61,0 -10.16,4.46 -10.16,9.96 0,5.5 4.55,9.96 10.16,9.96 5.61,0 10.16,-4.46 10.16,-9.96z"/>
    <path class="fil4" d="M4798.66 694.6c0,-3.92 -3.25,-7.11 -7.26,-7.11 -4,0 -7.25,3.19 -7.25,7.11 0,3.93 3.25,7.12 7.25,7.12 4.01,0 7.26,-3.19 7.26,-7.12z"/>
    <path class="fil4" d="M1800.01 1759.29c0,-3.93 -3.25,-7.12 -7.26,-7.12 -4,0 -7.25,3.19 -7.25,7.12 0,3.92 3.25,7.11 7.25,7.11 4.01,0 7.26,-3.19 7.26,-7.11z"/>
    <path class="fil4" d="M3472.06 1004.9c0,-2.36 -1.95,-4.27 -4.36,-4.27 -2.4,0 -4.35,1.91 -4.35,4.27 0,2.36 1.95,4.27 4.35,4.27 2.41,0 4.36,-1.91 4.36,-4.27z"/>
    <path class="fil4" d="M3535.92 1876c0,-3.93 -3.25,-7.11 -7.26,-7.11 -4,0 -7.25,3.18 -7.25,7.11 0,3.93 3.25,7.12 7.25,7.12 4.01,0 7.26,-3.19 7.26,-7.12z"/>
    <path class="fil4" d="M1303.63 4012.43c0,-3.14 -2.6,-5.69 -5.81,-5.69 -3.21,0 -5.81,2.55 -5.81,5.69 0,3.15 2.6,5.7 5.81,5.7 3.21,0 5.81,-2.55 5.81,-5.7z"/>
    <path class="fil4" d="M1210.73 3475.82c0,-5.5 -4.55,-9.96 -10.16,-9.96 -5.61,0 -10.16,4.46 -10.16,9.96 0,5.51 4.55,9.97 10.16,9.97 5.61,0 10.16,-4.46 10.16,-9.97z"/>
    <path class="fil4" d="M514.04 3959.77c0,-3.93 -3.25,-7.12 -7.26,-7.12 -4,0 -7.25,3.19 -7.25,7.12 0,3.92 3.25,7.11 7.25,7.11 4.01,0 7.26,-3.19 7.26,-7.11z"/>
    <path class="fil4" d="M885.61 4381.09c0,-5.51 -4.54,-9.97 -10.16,-9.97 -5.61,0 -10.16,4.46 -10.16,9.97 0,5.5 4.55,9.96 10.16,9.96 5.62,0 10.16,-4.46 10.16,-9.96z"/>
    <path class="fil4" d="M380.51 5686.31c0,-6.28 -5.2,-11.38 -11.61,-11.38 -6.41,0 -11.61,5.1 -11.61,11.38 0,6.29 5.2,11.39 11.61,11.39 6.41,0 11.61,-5.1 11.61,-11.39z"/>
    <path class="fil4" d="M557.59 5408.76c0,-7.08 -5.85,-12.82 -13.06,-12.82 -7.22,0 -13.06,5.74 -13.06,12.82 0,7.07 5.84,12.81 13.06,12.81 7.21,0 13.06,-5.74 13.06,-12.81z"/>
    <path class="fil4" d="M-89.75 5620.83c0,-6.28 -5.2,-11.38 -11.61,-11.38 -6.41,0 -11.61,5.1 -11.61,11.38 0,6.29 5.2,11.39 11.61,11.39 6.41,0 11.61,-5.1 11.61,-11.39z"/>
    <path class="fil4" d="M1442.96 7448.43c0,-4.71 -3.9,-8.54 -8.71,-8.54 -4.81,0 -8.71,3.83 -8.71,8.54 0,4.72 3.9,8.54 8.71,8.54 4.81,0 8.71,-3.82 8.71,-8.54z"/>
    <path class="fil4" d="M464.7 6671.27c0,-4.71 -3.9,-8.54 -8.71,-8.54 -4.81,0 -8.71,3.83 -8.71,8.54 0,4.72 3.9,8.54 8.71,8.54 4.81,0 8.71,-3.82 8.71,-8.54z"/>
    <path class="fil4" d="M876.9 7039.92c0,-2.36 -1.95,-4.27 -4.36,-4.27 -2.4,0 -4.35,1.91 -4.35,4.27 0,2.36 1.95,4.27 4.35,4.27 2.41,0 4.36,-1.91 4.36,-4.27z"/>
    <path class="fil4" d="M2090.29 7449.85c0,-3.93 -3.25,-7.11 -7.25,-7.11 -4.01,0 -7.26,3.18 -7.26,7.11 0,3.93 3.25,7.11 7.26,7.11 4,0 7.25,-3.18 7.25,-7.11z"/>
    <path class="fil4" d="M705.64 7782.92c0,-5.5 -4.55,-9.96 -10.17,-9.96 -5.61,0 -10.16,4.46 -10.16,9.96 0,5.5 4.55,9.96 10.16,9.96 5.62,0 10.17,-4.46 10.17,-9.96z"/>
    <path class="fil4" d="M485.02 6536.05c0,-5.51 -4.55,-9.97 -10.16,-9.97 -5.61,0 -10.16,4.46 -10.16,9.97 0,5.5 4.55,9.96 10.16,9.96 5.61,0 10.16,-4.46 10.16,-9.96z"/>
    <path class="fil4" d="M3019.21 8682.48c0,-3.92 -3.25,-7.11 -7.26,-7.11 -4,0 -7.25,3.19 -7.25,7.11 0,3.93 3.25,7.12 7.25,7.12 4.01,0 7.26,-3.19 7.26,-7.12z"/>
    <path class="fil4" d="M2906.01 8111.72c0,-3.15 -2.6,-5.7 -5.81,-5.7 -3.21,0 -5.81,2.55 -5.81,5.7 0,3.14 2.6,5.69 5.81,5.69 3.21,0 5.81,-2.55 5.81,-5.69z"/>
    <path class="fil4" d="M2058.36 8602.78c0,-5.5 -4.55,-9.96 -10.16,-9.96 -5.61,0 -10.16,4.46 -10.16,9.96 0,5.5 4.55,9.96 10.16,9.96 5.61,0 10.16,-4.46 10.16,-9.96z"/>
    <path class="fil4" d="M3765.25 9984.87c0,-3.15 -2.6,-5.7 -5.81,-5.7 -3.21,0 -5.81,2.55 -5.81,5.7 0,3.14 2.6,5.69 5.81,5.69 3.21,0 5.81,-2.55 5.81,-5.69z"/>
    <path class="fil4" d="M4938 8591.4c0,-3.93 -3.25,-7.12 -7.26,-7.12 -4,0 -7.25,3.19 -7.25,7.12 0,3.92 3.25,7.11 7.25,7.11 4.01,0 7.26,-3.19 7.26,-7.11z"/>
    <path class="fil4" d="M5161.52 9794.14c0,-1.57 -1.3,-2.84 -2.9,-2.84 -1.61,0 -2.9,1.27 -2.9,2.84 0,1.57 1.29,2.84 2.9,2.84 1.6,0 2.9,-1.27 2.9,-2.84z"/>
    <path class="fil4" d="M4273.24 9870.29c0,-5.11 -4.22,-9.25 -9.43,-9.25 -5.2,0 -9.43,4.14 -9.43,9.25 0,5.11 4.23,9.25 9.43,9.25 5.21,0 9.43,-4.14 9.43,-9.25z"/>
    <path class="fil4" d="M5733.38 9789.87c0,-3.93 -3.25,-7.11 -7.25,-7.11 -4.01,0 -7.26,3.18 -7.26,7.11 0,3.93 3.25,7.11 7.26,7.11 4,0 7.25,-3.18 7.25,-7.11z"/>
    <path class="fil4" d="M4656.42 9137.97c0,-3.93 -3.25,-7.12 -7.25,-7.12 -4.01,0 -7.26,3.19 -7.26,7.12 0,3.93 3.25,7.11 7.26,7.11 4,0 7.25,-3.18 7.25,-7.11z"/>
    <path class="fil4" d="M8711.72 8346.57c0,-3.93 -3.25,-7.11 -7.26,-7.11 -4,0 -7.25,3.18 -7.25,7.11 0,3.93 3.25,7.12 7.25,7.12 4.01,0 7.26,-3.19 7.26,-7.12z"/>
    <path class="fil4" d="M7762.48 8673.94c0,-2.36 -1.94,-4.27 -4.35,-4.27 -2.41,0 -4.35,1.91 -4.35,4.27 0,2.36 1.94,4.27 4.35,4.27 2.41,0 4.35,-1.91 4.35,-4.27z"/>
    <path class="fil4" d="M8595.61 7758.72c0,-4.71 -3.9,-8.54 -8.71,-8.54 -4.81,0 -8.71,3.83 -8.71,8.54 0,4.72 3.9,8.54 8.71,8.54 4.81,0 8.71,-3.82 8.71,-8.54z"/>
    <path class="fil4" d="M8229.85 6702.58c0,-4.71 -3.9,-8.54 -8.71,-8.54 -4.81,0 -8.71,3.83 -8.71,8.54 0,4.72 3.9,8.54 8.71,8.54 4.81,0 8.71,-3.82 8.71,-8.54z"/>
    <path class="fil4" d="M9370.66 7464.09c0,-3.93 -3.25,-7.12 -7.25,-7.12 -4.01,0 -7.26,3.19 -7.26,7.12 0,3.93 3.25,7.11 7.26,7.11 4,0 7.25,-3.18 7.25,-7.11z"/>
    <path class="fil4" d="M9289.39 7405.73c0,-4.71 -3.9,-8.54 -8.71,-8.54 -4.81,0 -8.71,3.83 -8.71,8.54 0,4.72 3.9,8.54 8.71,8.54 4.81,0 8.71,-3.82 8.71,-8.54z"/>
    <path class="fil4" d="M8732.04 5837.18c0,-3.15 -2.6,-5.7 -5.81,-5.7 -3.2,0 -5.8,2.55 -5.8,5.7 0,3.14 2.6,5.69 5.8,5.69 3.21,0 5.81,-2.55 5.81,-5.69z"/>
    <path class="fil4" d="M9187.79 5319.07c0,-3.15 -2.6,-5.7 -5.81,-5.7 -3.21,0 -5.81,2.55 -5.81,5.7 0,3.14 2.6,5.69 5.81,5.69 3.21,0 5.81,-2.55 5.81,-5.69z"/>
    <path class="fil4" d="M10047.03 4568.95c0,-7.07 -5.85,-12.81 -13.06,-12.81 -7.22,0 -13.07,5.74 -13.07,12.81 0,7.08 5.85,12.81 13.07,12.81 7.21,0 13.06,-5.73 13.06,-12.81z"/>
    <path class="fil4" d="M9687.08 4986c0,-4.72 -3.9,-8.54 -8.71,-8.54 -4.81,0 -8.71,3.82 -8.71,8.54 0,4.71 3.9,8.54 8.71,8.54 4.81,0 8.71,-3.83 8.71,-8.54z"/>
    <path class="fil4" d="M9643.54 5038.67c0,-3.93 -3.25,-7.12 -7.26,-7.12 -4,0 -7.25,3.19 -7.25,7.12 0,3.92 3.25,7.11 7.25,7.11 4.01,0 7.26,-3.19 7.26,-7.11z"/>
    <path class="fil4" d="M9181.98 3897.12c0,-5.5 -4.55,-9.96 -10.16,-9.96 -5.61,0 -10.16,4.46 -10.16,9.96 0,5.51 4.55,9.97 10.16,9.97 5.61,0 10.16,-4.46 10.16,-9.97z"/>
    <path class="fil4" d="M9242.94 3313.54c0,-7.07 -5.85,-12.81 -13.06,-12.81 -7.22,0 -13.07,5.74 -13.07,12.81 0,7.08 5.85,12.82 13.07,12.82 7.21,0 13.06,-5.74 13.06,-12.82z"/>
    <path class="fil4" d="M8296.61 2882.26c0,-4.71 -3.9,-8.54 -8.71,-8.54 -4.81,0 -8.71,3.83 -8.71,8.54 0,4.72 3.9,8.54 8.71,8.54 4.81,0 8.71,-3.82 8.71,-8.54z"/>
    <path class="fil4" d="M7948.26 2080.9c0,-7.07 -5.85,-12.81 -13.06,-12.81 -7.22,0 -13.06,5.74 -13.06,12.81 0,7.08 5.84,12.81 13.06,12.81 7.21,0 13.06,-5.73 13.06,-12.81z"/>
    <path class="fil4" d="M8984.58 2120.76c0,-3.93 -3.25,-7.12 -7.25,-7.12 -4.01,0 -7.26,3.19 -7.26,7.12 0,3.93 3.25,7.11 7.26,7.11 4,0 7.25,-3.18 7.25,-7.11z"/>
    <path class="fil4" d="M7405.43 1772.04c0,-3.15 -2.6,-5.7 -5.81,-5.7 -3.21,0 -5.81,2.55 -5.81,5.7 0,3.14 2.6,5.69 5.81,5.69 3.21,0 5.81,-2.55 5.81,-5.69z"/>
    <path class="fil4" d="M8554.96 1472.44c0,-5.91 -4.88,-10.7 -10.91,-10.7 -6.03,0 -10.91,4.79 -10.91,10.7 0,5.91 4.88,10.7 10.91,10.7 6.03,0 10.91,-4.79 10.91,-10.7z"/>
    <path class="fil4" d="M9576.77 2560.58c0,-3.15 -2.6,-5.7 -5.81,-5.7 -3.21,0 -5.81,2.55 -5.81,5.7 0,3.15 2.6,5.7 5.81,5.7 3.21,0 5.81,-2.55 5.81,-5.7z"/>
    <path class="fil4" d="M3030.83 1723.64c0,-3.15 -2.6,-5.7 -5.81,-5.7 -3.21,0 -5.81,2.55 -5.81,5.7 0,3.15 2.6,5.7 5.81,5.7 3.21,0 5.81,-2.55 5.81,-5.7z"/>
    <path class="fil4" d="M2339.94 2875.15c0,-3.93 -3.24,-7.11 -7.25,-7.11 -4,0 -7.24,3.18 -7.24,7.11 0,3.92 3.24,7.1 7.24,7.1 4.01,0 7.25,-3.18 7.25,-7.1z"/>
    <path class="fil4" d="M891.42 2056.7c0,-3.14 -2.6,-5.69 -5.81,-5.69 -3.21,0 -5.81,2.55 -5.81,5.69 0,3.15 2.6,5.7 5.81,5.7 3.21,0 5.81,-2.55 5.81,-5.7z"/>
    <path class="fil4" d="M438.57 4791c0,-3.93 -3.25,-7.11 -7.25,-7.11 -4.01,0 -7.26,3.18 -7.26,7.11 0,3.93 3.25,7.11 7.26,7.11 4,0 7.25,-3.18 7.25,-7.11z"/>
    <path class="fil4" d="M1100.42 5148.26c0,-3.14 -2.6,-5.69 -5.81,-5.69 -3.21,0 -5.81,2.55 -5.81,5.69 0,3.15 2.6,5.7 5.81,5.7 3.21,0 5.81,-2.55 5.81,-5.7z"/>
    <path class="fil4" d="M1895.8 6696.89c0,-4.71 -3.9,-8.54 -8.71,-8.54 -4.8,0 -8.71,3.83 -8.71,8.54 0,4.72 3.91,8.55 8.71,8.55 4.81,0 8.71,-3.83 8.71,-8.55z"/>
    <path class="fil4" d="M1382 8192.85c0,-2.36 -1.95,-4.27 -4.36,-4.27 -2.4,0 -4.35,1.91 -4.35,4.27 0,2.36 1.95,4.27 4.35,4.27 2.41,0 4.36,-1.91 4.36,-4.27z"/>
    <path class="fil4" d="M1591 8138.76c0,-2.36 -1.95,-4.27 -4.35,-4.27 -2.41,0 -4.36,1.91 -4.36,4.27 0,2.36 1.95,4.27 4.36,4.27 2.4,0 4.35,-1.91 4.35,-4.27z"/>
    <path class="fil4" d="M3779.77 8994.2c0,-3.15 -2.61,-5.7 -5.81,-5.7 -3.21,0 -5.81,2.55 -5.81,5.7 0,3.15 2.6,5.7 5.81,5.7 3.2,0 5.81,-2.55 5.81,-5.7z"/>
    <path class="fil4" d="M3106.3 8002.12c0,-3.93 -3.25,-7.12 -7.26,-7.12 -4,0 -7.25,3.19 -7.25,7.12 0,3.93 3.25,7.11 7.25,7.11 4.01,0 7.26,-3.18 7.26,-7.11z"/>
    <path class="fil4" d="M5489.54 9190.63c0,-3.15 -2.6,-5.7 -5.8,-5.7 -3.21,0 -5.81,2.55 -5.81,5.7 0,3.15 2.6,5.7 5.81,5.7 3.2,0 5.8,-2.55 5.8,-5.7z"/>
    <path class="fil4" d="M5477.94 9015.55c0,-2.36 -1.95,-4.27 -4.36,-4.27 -2.4,0 -4.35,1.91 -4.35,4.27 0,2.36 1.95,4.27 4.35,4.27 2.41,0 4.36,-1.91 4.36,-4.27z"/>
    <path class="fil4" d="M6911.94 9616.22c0,-2.36 -1.95,-4.27 -4.35,-4.27 -2.41,0 -4.36,1.91 -4.36,4.27 0,2.36 1.95,4.27 4.36,4.27 2.4,0 4.35,-1.91 4.35,-4.27z"/>
    <path class="fil4" d="M6821.95 9446.84c0,0 -1.29,0 -2.89,0 -1.61,0 -2.9,0 -2.9,0 0,0 1.29,0 2.9,0 1.6,0 2.89,0 2.89,0z"/>
    <path class="fil4" d="M6769.71 9536.51c0,-2.36 -1.95,-4.27 -4.36,-4.27 -2.4,0 -4.35,1.91 -4.35,4.27 0,2.36 1.95,4.27 4.35,4.27 2.41,0 4.36,-1.91 4.36,-4.27z"/>
    <path class="fil4" d="M7059.99 8340.88c0,-3.93 -3.25,-7.12 -7.26,-7.12 -4,0 -7.25,3.19 -7.25,7.12 0,3.92 3.25,7.11 7.25,7.11 4.01,0 7.26,-3.19 7.26,-7.11z"/>
    <path class="fil4" d="M6348.8 8609.89c0,-3.14 -2.6,-5.69 -5.81,-5.69 -3.21,0 -5.81,2.55 -5.81,5.69 0,3.15 2.6,5.7 5.81,5.7 3.21,0 5.81,-2.55 5.81,-5.7z"/>
    <path class="fil4" d="M6432.97 8601.36c0,-4.71 -3.9,-8.54 -8.71,-8.54 -4.81,0 -8.71,3.83 -8.71,8.54 0,4.72 3.9,8.54 8.71,8.54 4.81,0 8.71,-3.82 8.71,-8.54z"/>
    <path class="fil4" d="M6308.15 8787.82c0,-3.93 -3.25,-7.11 -7.25,-7.11 -4.01,0 -7.26,3.18 -7.26,7.11 0,3.93 3.25,7.11 7.26,7.11 4,0 7.25,-3.18 7.25,-7.11z"/>
    <path class="fil4" d="M7736.36 8265.44c0,-3.15 -2.6,-5.7 -5.81,-5.7 -3.21,0 -5.81,2.55 -5.81,5.7 0,3.15 2.6,5.7 5.81,5.7 3.21,0 5.81,-2.55 5.81,-5.7z"/>
    <path class="fil4" d="M7832.15 8070.44c0,-2.36 -1.95,-4.27 -4.35,-4.27 -2.41,0 -4.36,1.91 -4.36,4.27 0,2.36 1.95,4.27 4.36,4.27 2.4,0 4.35,-1.91 4.35,-4.27z"/>
    <path class="fil4" d="M8406.92 7086.89c0,-4.72 -3.9,-8.54 -8.71,-8.54 -4.81,0 -8.71,3.82 -8.71,8.54 0,4.72 3.9,8.54 8.71,8.54 4.81,0 8.71,-3.82 8.71,-8.54z"/>
    <path class="fil4" d="M9196.5 6829.27c0,-7.08 -5.85,-12.81 -13.07,-12.81 -7.21,0 -13.06,5.73 -13.06,12.81 0,7.07 5.85,12.81 13.06,12.81 7.22,0 13.07,-5.74 13.07,-12.81z"/>
    <path class="fil4" d="M10012.2 6235.71c0,-3.14 -2.6,-5.69 -5.81,-5.69 -3.21,0 -5.81,2.55 -5.81,5.69 0,3.15 2.6,5.7 5.81,5.7 3.21,0 5.81,-2.55 5.81,-5.7z"/>
    <path class="fil4" d="M8737.84 4850.78c0,-3.93 -3.24,-7.11 -7.25,-7.11 -4.01,0 -7.25,3.18 -7.25,7.11 0,3.93 3.24,7.12 7.25,7.12 4.01,0 7.25,-3.19 7.25,-7.12z"/>
    <path class="fil4" d="M9071.67 3979.68c0,-3.93 -3.25,-7.11 -7.25,-7.11 -4.01,0 -7.26,3.18 -7.26,7.11 0,3.93 3.25,7.11 7.26,7.11 4,0 7.25,-3.18 7.25,-7.11z"/>
    <path class="fil4" d="M8830.73 3743.4c0,-3.93 -3.25,-7.11 -7.26,-7.11 -4,0 -7.25,3.18 -7.25,7.11 0,3.93 3.25,7.11 7.25,7.11 4.01,0 7.26,-3.18 7.26,-7.11z"/>
    <path class="fil4" d="M8038.25 1582.73c0,-3.93 -3.25,-7.12 -7.26,-7.12 -4,0 -7.25,3.19 -7.25,7.12 0,3.92 3.25,7.11 7.25,7.11 4.01,0 7.26,-3.19 7.26,-7.11z"/>
    <path class="fil4" d="M6241.38 1161.47c0,-3.93 -3.25,-7.12 -7.25,-7.12 -4.01,0 -7.26,3.19 -7.26,7.12 0,3.93 3.25,7.11 7.26,7.11 4,0 7.25,-3.18 7.25,-7.11z"/>
    <path class="fil4" d="M5425.68 989.24c0,-3.15 -2.6,-5.7 -5.81,-5.7 -3.2,0 -5.8,2.55 -5.8,5.7 0,3.15 2.6,5.7 5.8,5.7 3.21,0 5.81,-2.55 5.81,-5.7z"/>
    <path class="fil4" d="M5393.75 1076.07c0,-2.36 -1.95,-4.27 -4.35,-4.27 -2.41,0 -4.36,1.91 -4.36,4.27 0,2.36 1.95,4.27 4.36,4.27 2.4,0 4.35,-1.91 4.35,-4.27z"/>
    <path class="fil4" d="M5184.74 1073.21c0,-2.35 -1.94,-4.27 -4.35,-4.27 -2.41,0 -4.35,1.92 -4.35,4.27 0,2.36 1.94,4.27 4.35,4.27 2.41,0 4.35,-1.91 4.35,-4.27z"/>
    <path class="fil4" d="M7057.09 1608.41c0,-2.36 -1.95,-4.27 -4.36,-4.27 -2.4,0 -4.35,1.91 -4.35,4.27 0,2.36 1.95,4.27 4.35,4.27 2.41,0 4.36,-1.91 4.36,-4.27z"/>
    <path class="fil4" d="M7829.24 1043.33c0,-1.58 -1.3,-2.85 -2.9,-2.85 -1.6,0 -2.9,1.27 -2.9,2.85 0,1.57 1.3,2.84 2.9,2.84 1.6,0 2.9,-1.27 2.9,-2.84z"/>
    <path class="fil4" d="M6862.59 311.72c0,-6.29 -5.2,-11.39 -11.61,-11.39 -6.41,0 -11.61,5.1 -11.61,11.39 0,6.29 5.2,11.38 11.61,11.38 6.41,0 11.61,-5.09 11.61,-11.38z"/>
    <path class="fil4" d="M6766.81 378.62c0,-2.36 -1.95,-4.27 -4.36,-4.27 -2.4,0 -4.35,1.91 -4.35,4.27 0,2.35 1.95,4.27 4.35,4.27 2.41,0 4.36,-1.92 4.36,-4.27z"/>
    <path class="fil4" d="M6885.82 563.66c0,-3.93 -3.25,-7.12 -7.26,-7.12 -4,0 -7.25,3.19 -7.25,7.12 0,3.92 3.25,7.11 7.25,7.11 4.01,0 7.26,-3.19 7.26,-7.11z"/>
    <path class="fil4" d="M2351.56 1537.24c0,-2.36 -1.95,-4.27 -4.36,-4.27 -2.4,0 -4.35,1.91 -4.35,4.27 0,2.36 1.95,4.27 4.35,4.27 2.41,0 4.36,-1.91 4.36,-4.27z"/>
    <path class="fil4" d="M2389.29 1540.08c0,-3.93 -3.25,-7.11 -7.25,-7.11 -4.01,0 -7.26,3.18 -7.26,7.11 0,3.93 3.25,7.12 7.26,7.12 4,0 7.25,-3.19 7.25,-7.12z"/>
    <path class="fil4" d="M2441.54 1414.83c0,-3.93 -3.25,-7.12 -7.25,-7.12 -4.01,0 -7.26,3.19 -7.26,7.12 0,3.92 3.25,7.11 7.26,7.11 4,0 7.25,-3.19 7.25,-7.11z"/>
    <path class="fil4" d="M2534.43 2498.01c0,-1.57 -1.3,-2.84 -2.9,-2.84 -1.6,0 -2.9,1.27 -2.9,2.84 0,1.57 1.3,2.85 2.9,2.85 1.6,0 2.9,-1.28 2.9,-2.85z"/>
    <path class="fil4" d="M2580.88 2386.99c0,-3.15 -2.6,-5.7 -5.81,-5.7 -3.21,0 -5.81,2.55 -5.81,5.7 0,3.15 2.6,5.7 5.81,5.7 3.21,0 5.81,-2.55 5.81,-5.7z"/>
   </g>
   <g id="bright">
    <path class="fil5" d="M6334.28 1181.39c0,-7.07 -5.85,-12.81 -13.07,-12.81 -7.21,0 -13.06,5.74 -13.06,12.81 0,7.08 5.85,12.82 13.06,12.82 7.22,0 13.07,-5.74 13.07,-12.82z"/>
    <path class="fil5" d="M3652.03 1528.7c0,-7.08 -5.84,-12.81 -13.06,-12.81 -7.21,0 -13.06,5.73 -13.06,12.81 0,7.07 5.85,12.81 13.06,12.81 7.22,0 13.06,-5.74 13.06,-12.81z"/>
    <path class="fil5" d="M4697.06 560.8c0,-10.22 -8.45,-18.5 -18.87,-18.5 -10.42,0 -18.87,8.28 -18.87,18.5 0,10.22 8.45,18.51 18.87,18.51 10.42,0 18.87,-8.29 18.87,-18.51z"/>
    <path class="fil5" d="M4569.34 1569.98c0,-7.87 -6.49,-14.24 -14.51,-14.24 -8.02,0 -14.52,6.37 -14.52,14.24 0,7.86 6.5,14.23 14.52,14.23 8.02,0 14.51,-6.37 14.51,-14.23z"/>
    <path class="fil5" d="M3678.16 179.35c0,-7.08 -5.85,-12.81 -13.06,-12.81 -7.22,0 -13.07,5.73 -13.07,12.81 0,7.07 5.85,12.81 13.07,12.81 7.21,0 13.06,-5.74 13.06,-12.81z"/>
    <path class="fil5" d="M7118.05 848.33c0,-8.65 -7.15,-15.66 -15.96,-15.66 -8.82,0 -15.97,7.01 -15.97,15.66 0,8.64 7.15,15.65 15.97,15.65 8.81,0 15.96,-7.01 15.96,-15.65z"/>
    <path class="fil5" d="M1936.45 2539.29c0,-7.08 -5.85,-12.81 -13.07,-12.81 -7.21,0 -13.06,5.73 -13.06,12.81 0,7.07 5.85,12.81 13.06,12.81 7.22,0 13.07,-5.74 13.07,-12.81z"/>
    <path class="fil5" d="M1640.35 1631.18c0,-5.5 -4.55,-9.96 -10.16,-9.96 -5.61,0 -10.16,4.46 -10.16,9.96 0,5.5 4.55,9.97 10.16,9.97 5.61,0 10.16,-4.47 10.16,-9.97z"/>
    <path class="fil5" d="M2467.67 873.95c0,-10.22 -8.45,-18.51 -18.87,-18.51 -10.42,0 -18.87,8.29 -18.87,18.51 0,10.22 8.45,18.5 18.87,18.5 10.42,0 18.87,-8.28 18.87,-18.5z"/>
    <path class="fil5" d="M743.37 2853.81c0,-7.87 -6.5,-14.24 -14.52,-14.24 -8.02,0 -14.51,6.37 -14.51,14.24 0,7.86 6.49,14.23 14.51,14.23 8.02,0 14.52,-6.37 14.52,-14.23z"/>
    <path class="fil5" d="M1390.71 4119.19c0,-8.65 -7.15,-15.66 -15.97,-15.66 -8.81,0 -15.96,7.01 -15.96,15.66 0,8.64 7.15,15.65 15.96,15.65 8.82,0 15.97,-7.01 15.97,-15.65z"/>
    <path class="fil5" d="M-25.89 4418.09c0,-5.5 -4.54,-9.96 -10.16,-9.96 -5.61,0 -10.16,4.46 -10.16,9.96 0,5.51 4.55,9.97 10.16,9.97 5.62,0 10.16,-4.46 10.16,-9.97z"/>
    <path class="fil5" d="M1274.6 6126.13c0,-8.64 -7.15,-15.65 -15.97,-15.65 -8.82,0 -15.96,7.01 -15.96,15.65 0,8.65 7.14,15.66 15.96,15.66 8.82,0 15.97,-7.01 15.97,-15.66z"/>
    <path class="fil6" d="M101.84 5524.05c0,-6.29 -5.2,-11.39 -11.61,-11.39 -6.42,0 -11.61,5.1 -11.61,11.39 0,6.29 5.19,11.38 11.61,11.38 6.41,0 11.61,-5.09 11.61,-11.38z"/>
    <path class="fil6" d="M609.84 7337.41c0,-9.43 -7.8,-17.08 -17.41,-17.08 -9.62,0 -17.42,7.65 -17.42,17.08 0,9.43 7.8,17.08 17.42,17.08 9.61,0 17.41,-7.65 17.41,-17.08z"/>
    <path class="fil6" d="M2255.76 8964.32c0,-11.79 -9.75,-21.35 -21.77,-21.35 -12.02,0 -21.77,9.56 -21.77,21.35 0,11.79 9.75,21.35 21.77,21.35 12.02,0 21.77,-9.56 21.77,-21.35z"/>
    <path class="fil6" d="M4400.97 8878.92c0,-7.08 -5.85,-12.81 -13.06,-12.81 -7.22,0 -13.06,5.73 -13.06,12.81 0,7.07 5.84,12.81 13.06,12.81 7.21,0 13.06,-5.74 13.06,-12.81z"/>
    <path class="fil6" d="M1352.97 8550.11c0,-11 -9.1,-19.92 -20.32,-19.92 -11.22,0 -20.31,8.92 -20.31,19.92 0,11.01 9.09,19.92 20.31,19.92 11.22,0 20.32,-8.91 20.32,-19.92z"/>
    <path class="fil6" d="M3414 9250.41c0,-12.58 -10.4,-22.78 -23.22,-22.78 -12.83,0 -23.23,10.2 -23.23,22.78 0,12.58 10.4,22.77 23.23,22.77 12.82,0 23.22,-10.19 23.22,-22.77z"/>
    <path class="fil6" d="M4029.41 9861.03c0,-10.22 -8.45,-18.5 -18.87,-18.5 -10.42,0 -18.87,8.28 -18.87,18.5 0,10.22 8.45,18.51 18.87,18.51 10.42,0 18.87,-8.29 18.87,-18.51z"/>
    <path class="fil6" d="M5823.37 8878.92c0,-7.08 -5.85,-12.81 -13.06,-12.81 -7.22,0 -13.07,5.73 -13.07,12.81 0,7.07 5.85,12.81 13.07,12.81 7.21,0 13.06,-5.74 13.06,-12.81z"/>
    <path class="fil6" d="M6607.15 9518.01c0,-7.86 -6.5,-14.24 -14.52,-14.24 -8.01,0 -14.51,6.38 -14.51,14.24 0,7.86 6.5,14.23 14.51,14.23 8.02,0 14.52,-6.37 14.52,-14.23z"/>
    <path class="fil6" d="M7016.44 8140.18c0,-7.86 -6.49,-14.23 -14.51,-14.23 -8.02,0 -14.52,6.37 -14.52,14.23 0,7.86 6.5,14.24 14.52,14.24 8.02,0 14.51,-6.38 14.51,-14.24z"/>
    <path class="fil6" d="M6673.91 8865.39c0,-7.47 -6.17,-13.52 -13.78,-13.52 -7.62,0 -13.79,6.05 -13.79,13.52 0,7.47 6.17,13.52 13.79,13.52 7.61,0 13.78,-6.05 13.78,-13.52z"/>
    <path class="fil6" d="M8165.97 8954.35c0,-9.43 -7.79,-17.07 -17.41,-17.07 -9.62,0 -17.42,7.64 -17.42,17.07 0,9.44 7.8,17.08 17.42,17.08 9.62,0 17.41,-7.64 17.41,-17.08z"/>
    <path class="fil6" d="M7762.48 8824.83c0,-8.65 -7.14,-15.66 -15.96,-15.66 -8.82,0 -15.96,7.01 -15.96,15.66 0,8.64 7.14,15.65 15.96,15.65 8.82,0 15.96,-7.01 15.96,-15.65z"/>
    <path class="fil6" d="M7791.51 7647.7c0,-7.86 -6.49,-14.23 -14.51,-14.23 -8.02,0 -14.52,6.37 -14.52,14.23 0,7.86 6.5,14.23 14.52,14.23 8.02,0 14.51,-6.37 14.51,-14.23z"/>
    <path class="fil6" d="M9582.58 7047.03c0,-6.28 -5.2,-11.38 -11.61,-11.38 -6.41,0 -11.61,5.1 -11.61,11.38 0,6.29 5.2,11.39 11.61,11.39 6.41,0 11.61,-5.1 11.61,-11.39z"/>
    <path class="fil6" d="M9089.09 6238.57c0,-9.43 -7.8,-17.08 -17.42,-17.08 -9.62,0 -17.41,7.65 -17.41,17.08 0,9.43 7.79,17.08 17.41,17.08 9.62,0 17.42,-7.65 17.42,-17.08z"/>
    <path class="fil6" d="M10003.49 5531.16c0,-7.08 -5.85,-12.81 -13.07,-12.81 -7.21,0 -13.06,5.73 -13.06,12.81 0,7.07 5.85,12.81 13.06,12.81 7.22,0 13.07,-5.74 13.07,-12.81z"/>
    <path class="fil6" d="M9161.66 4369.68c0,-10.22 -8.45,-18.51 -18.87,-18.51 -10.42,0 -18.87,8.29 -18.87,18.51 0,10.22 8.45,18.5 18.87,18.5 10.42,0 18.87,-8.28 18.87,-18.5z"/>
    <path class="fil6" d="M9901.88 3417.44c0,-11 -9.09,-19.92 -20.31,-19.92 -11.22,0 -20.32,8.92 -20.32,19.92 0,11.01 9.1,19.93 20.32,19.93 11.22,0 20.31,-8.92 20.31,-19.93z"/>
    <path class="fil6" d="M7356.08 1575.61c0,-7.86 -6.49,-14.23 -14.51,-14.23 -8.02,0 -14.52,6.37 -14.52,14.23 0,7.86 6.5,14.24 14.52,14.24 8.02,0 14.51,-6.38 14.51,-14.24z"/>
    <path class="fil6" d="M8404.01 1166.42c0,-8.26 -6.84,-14.97 -15.27,-14.97 -8.43,0 -15.26,6.71 -15.26,14.97 0,8.27 6.83,14.97 15.26,14.97 8.43,0 15.27,-6.7 15.27,-14.97z"/>
    <path class="fil6" d="M1228.15 2769.82c0,-7.08 -5.85,-12.82 -13.06,-12.82 -7.22,0 -13.06,5.74 -13.06,12.82 0,7.07 5.84,12.81 13.06,12.81 7.21,0 13.06,-5.74 13.06,-12.81z"/>
    <path class="fil6" d="M1881.29 3238.1c0,-7.86 -6.5,-14.23 -14.51,-14.23 -8.02,0 -14.52,6.37 -14.52,14.23 0,7.86 6.5,14.24 14.52,14.24 8.01,0 14.51,-6.38 14.51,-14.24z"/>
    <path class="fil6" d="M1024.94 5232.24c0,-5.5 -4.55,-9.96 -10.16,-9.96 -5.61,0 -10.16,4.46 -10.16,9.96 0,5.5 4.55,9.96 10.16,9.96 5.61,0 10.16,-4.46 10.16,-9.96z"/>
    <path class="fil6" d="M1367.48 5253.59c0,-6.29 -5.2,-11.39 -11.61,-11.39 -6.41,0 -11.61,5.1 -11.61,11.39 0,6.29 5.2,11.38 11.61,11.38 6.41,0 11.61,-5.09 11.61,-11.38z"/>
    <path class="fil6" d="M1216.53 7111.1c0,-11.8 -9.75,-21.35 -21.77,-21.35 -12.02,0 -21.77,9.55 -21.77,21.35 0,11.79 9.75,21.34 21.77,21.34 12.02,0 21.77,-9.55 21.77,-21.34z"/>
    <path class="fil6" d="M7591.21 8241.25c0,-11.79 -9.75,-21.35 -21.77,-21.35 -12.02,0 -21.77,9.56 -21.77,21.35 0,11.79 9.75,21.35 21.77,21.35 12.02,0 21.77,-9.56 21.77,-21.35z"/>
    <path class="fil6" d="M8354.67 7196.5c0,-7.08 -5.85,-12.81 -13.07,-12.81 -7.21,0 -13.06,5.73 -13.06,12.81 0,7.07 5.85,12.81 13.06,12.81 7.22,0 13.07,-5.74 13.07,-12.81z"/>
    <path class="fil6" d="M8647.86 5461.41c0,-9.43 -7.8,-17.08 -17.42,-17.08 -9.62,0 -17.41,7.65 -17.41,17.08 0,9.43 7.79,17.08 17.41,17.08 9.62,0 17.42,-7.65 17.42,-17.08z"/>
    <path class="fil6" d="M8781.38 2942.04c0,-11 -9.09,-19.92 -20.31,-19.92 -11.22,0 -20.32,8.92 -20.32,19.92 0,11.01 9.1,19.93 20.32,19.93 11.22,0 20.31,-8.92 20.31,-19.93z"/>
    <path class="fil6" d="M7980.2 1665.28c0,-7.07 -5.85,-12.81 -13.06,-12.81 -7.22,0 -13.07,5.74 -13.07,12.81 0,7.08 5.85,12.81 13.07,12.81 7.21,0 13.06,-5.73 13.06,-12.81z"/>
    <path class="fil6" d="M2357.36 8096.12c0,-8.65 -7.15,-15.65 -15.97,-15.65 -8.81,0 -15.96,7 -15.96,15.65 0,8.65 7.15,15.66 15.96,15.66 8.82,0 15.97,-7.01 15.97,-15.66z"/>
    <path class="fil6" d="M2209.32 8107.51c0,-5.51 -4.55,-9.97 -10.16,-9.97 -5.61,0 -10.16,4.46 -10.16,9.97 0,5.5 4.55,9.96 10.16,9.96 5.61,0 10.16,-4.46 10.16,-9.96z"/>
    <path class="fil6" d="M3524.3 9027.01c0,-5.51 -4.54,-9.97 -10.16,-9.97 -5.61,0 -10.16,4.46 -10.16,9.97 0,5.5 4.55,9.96 10.16,9.96 5.62,0 10.16,-4.46 10.16,-9.96z"/>
    <path class="fil6" d="M4194.87 9720.18c0,-4.71 -3.9,-8.54 -8.71,-8.54 -4.81,0 -8.71,3.83 -8.71,8.54 0,4.72 3.9,8.54 8.71,8.54 4.81,0 8.71,-3.82 8.71,-8.54z"/>
    <path class="fil6" d="M5547.6 10135.81c0,-6.29 -5.2,-11.39 -11.61,-11.39 -6.42,0 -11.61,5.1 -11.61,11.39 0,6.28 5.19,11.38 11.61,11.38 6.41,0 11.61,-5.1 11.61,-11.38z"/>
    <path class="fil6" d="M8668.17 8228.49c0,-7.87 -6.49,-14.24 -14.51,-14.24 -8.02,0 -14.52,6.37 -14.52,14.24 0,7.86 6.5,14.23 14.52,14.23 8.02,0 14.51,-6.37 14.51,-14.23z"/>
    <path class="fil6" d="M8360.47 7979.4c0,-5.51 -4.55,-9.97 -10.16,-9.97 -5.61,0 -10.16,4.46 -10.16,9.97 0,5.5 4.55,9.96 10.16,9.96 5.61,0 10.16,-4.46 10.16,-9.96z"/>
    <path class="fil6" d="M9240.03 6467.78c0,-13.36 -11.05,-24.2 -24.67,-24.2 -13.62,0 -24.67,10.84 -24.67,24.2 0,13.36 11.05,24.19 24.67,24.19 13.62,0 24.67,-10.83 24.67,-24.19z"/>
    <path class="fil6" d="M9875.76 4635.9c0,-6.29 -5.2,-11.38 -11.61,-11.38 -6.41,0 -11.61,5.09 -11.61,11.38 0,6.29 5.2,11.39 11.61,11.39 6.41,0 11.61,-5.1 11.61,-11.39z"/>
    <path class="fil6" d="M8874.27 2737.13c0,-6.29 -5.19,-11.38 -11.61,-11.38 -6.41,0 -11.6,5.09 -11.6,11.38 0,6.29 5.19,11.39 11.6,11.39 6.42,0 11.61,-5.1 11.61,-11.39z"/>
    <path class="fil6" d="M8206.62 2442.49c0,-3.92 -3.25,-7.11 -7.25,-7.11 -4.01,0 -7.26,3.19 -7.26,7.11 0,3.93 3.25,7.12 7.26,7.12 4,0 7.25,-3.19 7.25,-7.12z"/>
    <path class="fil6" d="M6392.33 1355.04c0,-5.5 -4.54,-9.96 -10.16,-9.96 -5.61,0 -10.16,4.46 -10.16,9.96 0,5.51 4.55,9.97 10.16,9.97 5.62,0 10.16,-4.46 10.16,-9.97z"/>
    <path class="fil6" d="M5686.94 523.79c0,-5.5 -4.55,-9.97 -10.16,-9.97 -5.61,0 -10.16,4.47 -10.16,9.97 0,5.5 4.55,9.96 10.16,9.96 5.61,0 10.16,-4.46 10.16,-9.96z"/>
    <path class="fil6" d="M4255.83 1098.83c0,-5.51 -4.54,-9.97 -10.16,-9.97 -5.61,0 -10.16,4.46 -10.16,9.97 0,5.5 4.55,9.96 10.16,9.96 5.62,0 10.16,-4.46 10.16,-9.96z"/>
    <path class="fil6" d="M4371.94 1064.67c0,-8.64 -7.15,-15.65 -15.96,-15.65 -8.82,0 -15.97,7.01 -15.97,15.65 0,8.65 7.15,15.66 15.97,15.66 8.81,0 15.96,-7.01 15.96,-15.66z"/>
    <path class="fil6" d="M2563.46 1562.85c0,-5.5 -4.55,-9.96 -10.16,-9.96 -5.61,0 -10.16,4.46 -10.16,9.96 0,5.51 4.55,9.97 10.16,9.97 5.61,0 10.16,-4.46 10.16,-9.97z"/>
   </g>
  </g>
 </g>
</svg>
